# xmcd CD database file
#
# Track frame offsets:
#	150
#	16738
#	39538
#	56786
#	84500
#	108119
#	126795
#	150833
#	172549
#	190358
#	208491
#	228678
#	246686
#	267046
#
# Disc length: 3810 seconds
#
# Revision: 0
# Processed by: cddbd v1.5.2PL0 Copyright (c) Steve Scherf et al.
# Submitted via: CDex 1.50beta9
#
DISCID=b60ee00e
DTITLE=Various Artist - Wave Music Vol. 11
DYEAR=2007
DGENRE=Jazz
TTITLE0=De Phazz - My Society
TTITLE1=Marc Antoine - Camden Town
TTITLE2=Nyee Moses - Between Us
TTITLE3=Nighthawks - Pensado Em Outro Mundo
TTITLE4=Bebel Gilberto - Momento
TTITLE5=Camaleao Azul - Anoitecer
TTITLE6=Victor Davies - Brother
TTITLE7=The JuJu Orchestra - Do It Again
TTITLE8=Leza - Treasure
TTITLE9=Matthias Vogt Trio - Pilot
TTITLE10=Bah Samba - Just Want To Love You
TTITLE11=Chill-Ish feat. In-Grid - Un Beau Roman
TTITLE12=Giacomo Bondi - Blackbird
TTITLE13=Karl Frierson - Only You
EXTD=YEAR: 2007
EXTT0=
EXTT1=
EXTT2=
EXTT3=
EXTT4=
EXTT5=
EXTT6=
EXTT7=
EXTT8=
EXTT9=
EXTT10=
EXTT11=
EXTT12=
EXTT13=
PLAYORDER=
